# xmcd
#
# Track frame offsets: 
#        150
#        21641
#        36173
#        55538
#        86569
#        99564
#        132134
#        142630
#        171083
#        198810
#        240841
#        260510
#        287420
#        310427
#        323224
#
# Disc length: 4887 seconds
#
# Revision: 4
# Processed by: cddbd v1.5.2PL0 Copyright (c) Steve Scherf et al.
# Submitted via: ExactAudioCopy v0.99pb5
#
DISCID=c213150f
DTITLE=Gary Moore - BACK TO THE BLUES and 5 BONUS TRACKS
DYEAR=2001
DGENRE=Blues
TTITLE0=Enough Of The Blues
TTITLE1=You Upset Me Baby
TTITLE2=Cold Black Night
TTITLE3=Stormy Monday
TTITLE4=Ain't Got You
TTITLE5=Picture Of The Moon
TTITLE6=Looking Back
TTITLE7=The Prophet
TTITLE8=How Many Lies
TTITLE9=Drowning In Tears
TTITLE10=Go On Home
TTITLE11=Lost In Your Love
TTITLE12=Worry No More
TTITLE13=Fire
TTITLE14=Surrender
EXTD=
EXTT0=
EXTT1=
EXTT2=
EXTT3=
EXTT4=
EXTT5=
EXTT6=
EXTT7=
EXTT8=
EXTT9=
EXTT10=
EXTT11=
EXTT12=
EXTT13=
EXTT14=
PLAYORDER=
